<?xml version="1.0" standalone="no"?>
<!DOCTYPE svg PUBLIC "-//W3C//DTD SVG 20010904//EN"
 "http://www.w3.org/TR/2001/REC-SVG-20010904/DTD/svg10.dtd">
<svg version="1.0" xmlns="http://www.w3.org/2000/svg"
 width="28.000000pt" height="28.000000pt" viewBox="0 0 28.000000 28.000000"
 preserveAspectRatio="xMidYMid meet">

<g transform="translate(0.000000,28.000000) scale(0.100000,-0.100000)"
fill="#000000" stroke="none">
<path d="M0 140 l0 -140 140 0 140 0 0 140 0 140 -140 0 -140 0 0 -140z m192
47 c28 29 55 53 60 53 5 0 8 -28 6 -62 l-3 -63 -70 -37 c-38 -21 -76 -38 -82
-38 -18 0 -16 30 4 52 15 17 14 18 -30 18 l-47 0 0 67 0 68 56 -56 56 -56 50
54z"/>
</g>
</svg>
